<svg xmlns="http://www.w3.org/2000/svg" viewBox="0 0 46 46">
    <g>
        <path d="M22.643,0C35.14,0 45.286,10.146 45.286,22.643C45.286,35.14 35.14,45.286 22.643,45.286C10.146,45.286 0,35.14 0,22.643C0,10.146 10.146,0 22.643,0ZM16.837,18.824L22.643,13.018L24.346,14.722L24.655,14.848L27.078,14.828L27.38,14.091L22.948,9.659L22.337,9.659L13.478,18.519L13.478,19.129L22.211,27.862L22.211,32.878L22.211,35.321L22.948,35.627L31.808,26.767L31.808,26.156L28.294,22.643L31.808,19.129L31.808,18.519L30.586,17.297L30.281,17.17L22.643,17.17L22.211,17.602L22.211,24.197L16.837,18.824ZM28.448,26.462L24.915,29.995L24.878,26.059L26.462,24.475L28.448,26.462ZM24.819,19.762L27.51,19.762L24.844,22.428L24.819,19.762Z" style="fill:rgb(255,255,255);"/>
    </g>
</svg>
