<svg xmlns="http://www.w3.org/2000/svg" viewBox="0 0 91 91 ">
    <g transform="matrix(2,0,0,2,0,0)">
        <g transform="matrix(0.570321,0,0,0.570321,-19.5783,-9.03001)">
            <circle cx="74.03" cy="55.535" r="39.702" style="fill:rgb(16,185,129);"/>
            <g transform="matrix(0.75729,0,0,0.75729,17.968,14.895)">
                <path d="M60.589,44.823L73.03,57.265L73.03,41.995L74.03,40.995L91.715,40.995L92.422,41.287L95.25,44.116L95.25,45.53L87.115,53.665L95.25,61.8L95.25,63.214L74.738,83.727L73.03,83.02L73.03,77.363L73.03,65.75L52.811,45.53L52.811,44.116L73.323,23.603L74.738,23.603L84.998,33.864L84.3,35.571L78.689,35.617L77.974,35.325L74.03,31.381L60.589,44.823ZM79.07,46.995L79.128,53.167L85.301,46.995L79.07,46.995ZM87.472,62.507L82.873,57.908L79.207,61.574C79.207,61.574 79.292,70.687 79.292,70.687L87.472,62.507Z" style="fill:white;"/>
            </g>
        </g>
    </g>
</svg>